<?xml version="1.0" standalone="no"?>
<!DOCTYPE svg PUBLIC "-//W3C//DTD SVG 20010904//EN"
 "http://www.w3.org/TR/2001/REC-SVG-20010904/DTD/svg10.dtd">
<svg version="1.0" xmlns="http://www.w3.org/2000/svg"
 width="150px"  height="auto" viewBox="0 0 466.000000 179.000000"
 preserveAspectRatio="xMidYMid meet">

<g transform="translate(0.000000,179.000000) scale(0.100000,-0.100000)"
fill="#000000" stroke="none">
<path d="M1097 1753 c-11 -10 -8 -102 4 -124 18 -34 22 -60 26 -169 4 -97 3
-108 -19 -139 -41 -61 -65 -72 -170 -78 l-95 -6 -15 44 c-8 24 -42 123 -76
220 -33 97 -66 186 -73 198 -26 41 -51 22 -96 -69 -23 -47 -43 -94 -43 -105 0
-11 -7 -29 -15 -39 -8 -11 -15 -28 -15 -39 0 -10 -4 -15 -10 -12 -5 3 -10 33
-10 66 0 48 -3 59 -16 59 -15 0 -16 -11 -10 -100 6 -89 5 -105 -15 -150 -21
-50 -22 -50 -68 -50 -25 0 -86 7 -136 15 -107 18 -191 19 -201 4 -12 -19 15
-26 130 -33 61 -4 127 -11 146 -16 19 -4 48 -11 63 -14 33 -8 32 -14 -18 -122
-45 -97 -104 -286 -111 -354 -6 -60 8 -97 26 -70 5 8 10 24 10 35 0 12 4 25 9
30 9 9 88 206 148 370 14 39 27 72 29 74 15 17 223 -114 329 -207 61 -55 145
-164 145 -189 0 -7 7 -13 15 -13 23 0 18 35 -14 95 -16 31 -35 81 -41 113 -7
31 -23 95 -36 141 -13 46 -24 84 -24 86 0 1 45 5 101 9 93 6 104 9 138 36 l36
30 7 -117 c5 -65 11 -181 15 -257 8 -147 22 -183 43 -108 5 22 17 45 25 52 8
7 15 18 15 25 0 7 7 18 15 25 7 6 17 32 21 56 3 24 10 44 14 44 4 0 10 9 13
20 3 11 9 20 15 20 18 0 90 -83 96 -111 7 -34 39 -69 64 -69 11 0 25 14 36 37
l18 38 18 -22 c41 -51 128 -114 194 -142 39 -16 115 -50 168 -75 53 -25 102
-46 109 -46 13 0 215 -104 239 -123 38 -30 50 -65 50 -150 0 -100 -6 -108
-101 -136 -118 -34 -232 -50 -374 -52 -148 -2 -193 6 -310 55 -86 35 -109 37
-113 8 -2 -13 8 -41 22 -63 l26 -39 128 0 c70 0 143 -4 162 -10 19 -5 55 -12
80 -15 24 -4 49 -9 54 -13 5 -3 98 -8 205 -11 l196 -6 5 -35 c3 -21 11 -36 21
-38 19 -3 39 100 48 246 6 89 8 95 36 118 37 29 58 30 101 3 35 -21 62 -61 84
-119 35 -99 66 -149 101 -169 38 -22 108 -28 125 -12 5 5 25 11 44 13 32 3 37
8 74 80 22 43 42 75 45 73 2 -3 5 -19 6 -35 2 -34 34 -110 47 -110 20 0 50 40
71 96 13 32 30 60 38 62 8 1 31 -13 52 -33 55 -52 82 -44 89 25 3 30 7 35 31
38 20 3 36 16 59 53 18 27 40 49 48 49 28 -1 120 -101 166 -180 l45 -78 72 -6
c146 -12 228 -15 487 -17 254 -3 291 -2 306 14 4 4 38 7 76 7 68 0 68 0 68 28
0 15 -13 46 -29 68 -16 21 -41 69 -56 107 -15 37 -31 67 -36 67 -5 0 -9 7 -9
15 0 8 -7 15 -15 15 -23 0 -19 -41 10 -107 32 -72 32 -148 0 -148 -26 0 -105
119 -105 158 0 17 -5 27 -15 27 -36 0 -11 -85 49 -163 32 -42 34 -48 19 -55
-22 -9 -213 -7 -428 5 l-160 8 84 14 c66 11 90 20 116 42 36 32 52 76 36 92
-6 6 -11 17 -11 24 0 19 -41 75 -115 158 -52 57 -74 75 -94 75 -53 0 -56 -8
-62 -162 -5 -145 -12 -171 -52 -215 -15 -17 -32 -23 -63 -23 -49 0 -63 11 -95
77 -27 55 -148 179 -181 185 -33 6 -58 -1 -58 -17 0 -7 -7 -18 -15 -25 -8 -7
-15 -21 -15 -31 0 -13 -7 -19 -22 -19 -13 0 -28 -4 -34 -8 -16 -11 -34 -48
-34 -71 0 -24 -18 -28 -26 -7 -9 23 -69 50 -96 43 -20 -5 -30 -20 -48 -67 -12
-33 -27 -63 -32 -66 -15 -10 -28 17 -28 59 0 49 -28 100 -52 93 -12 -3 -18 2
-18 14 0 25 -36 35 -63 17 -69 -46 -98 -101 -101 -189 -1 -38 -1 -38 -42 -38
-46 0 -58 10 -90 80 -12 25 -37 79 -56 120 -31 66 -41 78 -80 98 -54 26 -69
27 -109 6 -17 -8 -32 -14 -34 -12 -2 2 -7 52 -13 111 -5 59 -14 113 -20 119
-19 19 -32 -3 -32 -54 0 -49 -1 -50 -18 -35 -10 10 -26 17 -35 17 -9 0 -18 4
-22 10 -7 11 -182 100 -197 100 -5 0 -67 26 -136 59 -70 32 -145 65 -166 72
-23 8 -68 42 -109 81 l-69 67 18 30 c10 17 21 31 25 31 8 0 102 -60 141 -90
39 -30 136 -72 188 -83 81 -16 334 -26 348 -14 17 14 1323 16 1437 2 44 -6
146 -9 228 -7 147 3 147 3 147 26 0 13 -7 29 -15 36 -8 7 -15 23 -15 36 0 13
-9 43 -19 67 -31 68 -61 211 -61 287 0 50 -4 76 -15 86 -8 9 -15 29 -15 45 0
20 -5 29 -16 29 -15 0 -16 -12 -9 -112 4 -62 8 -151 9 -197 l1 -84 -43 -15
c-24 -8 -61 -32 -83 -54 l-40 -41 -115 7 c-136 8 -171 22 -209 82 l-28 44 -71
0 c-70 0 -116 -16 -116 -41 0 -6 -9 -22 -20 -36 -11 -14 -20 -34 -20 -45 0
-11 -11 -23 -26 -28 -14 -6 -198 -10 -440 -11 -388 0 -415 -1 -426 -18 -9 -15
-17 -17 -47 -9 -20 5 -61 16 -91 23 -78 19 -278 81 -322 99 -21 9 -53 16 -71
16 -37 0 -121 32 -149 58 -14 11 -18 30 -18 75 0 53 4 65 34 101 35 43 109 76
169 76 30 0 36 14 10 24 -24 9 -133 -4 -165 -20 -15 -8 -36 -14 -46 -14 -11 0
-39 -17 -63 -38 l-43 -39 -1 -94 c0 -87 4 -117 20 -169 8 -26 -21 -81 -39 -74
-8 3 -18 18 -21 34 -3 16 -13 34 -21 41 -8 6 -14 17 -14 23 0 17 -55 55 -88
62 -25 5 -32 1 -50 -31 -12 -20 -22 -42 -22 -50 0 -18 -43 -115 -51 -115 -4 0
-10 39 -13 88 -17 251 -18 334 -6 464 9 102 9 143 1 151 -6 6 -11 21 -11 34 0
28 -40 153 -50 153 -4 0 -10 -3 -13 -7z m-429 -100 c6 -16 23 -66 38 -113 14
-47 44 -131 65 -188 22 -56 39 -104 39 -107 0 -7 -176 -6 -249 1 l-61 7 0 48
c0 27 9 68 19 91 11 24 26 62 35 86 34 91 50 128 62 142 6 8 15 25 18 38 10
30 21 28 34 -5z m915 -384 c-3 -11 -12 -23 -19 -26 -19 -7 -20 -153 -2 -171 9
-9 10 -15 2 -20 -6 -4 -17 -18 -24 -32 l-13 -25 -13 35 c-15 43 -18 149 -4
187 10 26 56 73 72 73 3 0 4 -9 1 -21z m-765 -64 c5 -5 62 -228 62 -243 0 -8
-22 6 -49 31 -64 57 -214 159 -288 197 l-58 29 165 -6 c91 -3 166 -7 168 -8z
m-440 -195 c-23 -55 -44 -97 -46 -92 -5 16 76 207 84 199 3 -3 -14 -51 -38
-107z m2991 23 c-1 -23 -151 -104 -165 -90 -7 7 31 66 54 85 17 13 112 17 111
5z m586 -32 c-3 -6 -11 -11 -17 -11 -6 0 -6 6 2 15 14 17 26 13 15 -4z m-53
-17 c-5 -27 -35 -44 -79 -44 -23 0 -24 2 -12 17 17 20 70 53 85 53 7 0 9 -11
6 -26z m-2052 -24 c47 -15 105 -33 130 -40 25 -7 62 -19 83 -26 20 -8 47 -14
60 -14 12 -1 35 -6 50 -13 24 -10 14 -12 -70 -9 -158 4 -261 31 -363 97 -28
18 -54 35 -57 38 -12 13 90 -7 167 -33z m1524 -7 c-12 -52 -28 -67 -75 -70
-50 -3 -89 4 -89 15 0 4 27 17 59 30 33 13 65 30 71 38 22 25 41 17 34 -13z
m108 -21 c15 -6 83 -14 152 -18 125 -7 126 -7 126 -31 l0 -25 -137 6 c-76 4
-161 9 -189 12 l-52 5 16 50 c16 48 16 49 36 31 12 -10 33 -23 48 -30z m528
-6 c0 -18 5 -37 12 -44 20 -20 4 -23 -95 -20 l-95 3 76 57 c83 62 102 63 102
4z m-180 -26 c-20 -13 -40 -13 -40 0 0 6 12 10 28 10 21 0 24 -2 12 -10z
m-3509 -33 c-10 -9 -11 -8 -5 6 3 10 9 15 12 12 3 -3 0 -11 -7 -18z m2852 16
c-7 -2 -19 -2 -25 0 -7 3 -2 5 12 5 14 0 19 -2 13 -5z m-608 -12 c-16 -3 -84
-3 -150 0 l-120 5 150 1 c83 1 137 -2 120 -6z m1335 -363 c15 -18 51 -60 79
-92 28 -33 56 -77 63 -98 10 -33 9 -41 -8 -59 -28 -32 -47 -39 -150 -58 -107
-20 -100 -25 -70 54 10 27 15 77 16 151 0 141 16 164 70 102z m-1030 -291
c-60 -107 -95 -110 -64 -5 14 44 28 68 54 89 l35 30 3 -30 c2 -19 -8 -49 -28
-84z m-1375 2 c30 -11 55 -25 55 -30 0 -5 -19 -9 -43 -9 -37 0 -45 4 -60 30
-10 17 -16 30 -13 30 3 0 30 -9 61 -21z m788 -36 l-6 -51 -111 -4 c-101 -4
-311 14 -324 27 -3 3 28 5 69 5 41 0 91 5 111 10 20 6 65 15 100 19 35 5 86
18 113 28 28 11 51 19 52 18 1 -1 0 -24 -4 -52z m2292 16 c15 -28 15 -29 -10
-29 -22 0 -25 4 -25 36 0 40 12 38 35 -7z"/>
<path d="M4350 750 c0 -5 -20 -10 -45 -10 -49 0 -72 -23 -60 -61 6 -18 12 -20
41 -14 19 3 34 2 34 -3 0 -5 9 -20 21 -33 12 -13 29 -34 39 -47 15 -18 27 -23
57 -20 l38 3 3 59 c3 55 1 61 -25 82 -15 13 -36 23 -46 24 -10 0 -20 7 -23 15
-7 17 -34 21 -34 5z m76 -68 c24 -23 26 -85 3 -90 -9 -2 -32 17 -53 43 l-37
45 25 0 c14 0 26 5 26 10 0 15 14 12 36 -8z"/>
</g>
</svg>
