<svg version="1.1" id="Layer_1" xmlns="http://www.w3.org/2000/svg" xmlns:xlink="http://www.w3.org/1999/xlink" x="0px" y="0px"
	 width="150px"  viewBox="0 0 1024 576" enable-background="new 0 0 1024 576" xml:space="preserve">
<path fill="#444750" opacity="1.000000" stroke="none" 
	d="
M240.763123,73.414696 
	C247.023361,86.566788 250.133606,100.448616 255.075150,113.685555 
	C258.153687,121.932076 261.124451,130.219254 264.083588,138.509598 
	C264.798828,140.513367 266.321228,140.700714 268.066803,140.737579 
	C276.225433,140.909882 284.378693,140.818985 292.473907,139.702713 
	C297.858307,138.960236 306.492737,130.731293 306.690613,124.975609 
	C307.193909,110.338753 309.045441,95.562912 302.662659,81.414833 
	C300.317230,76.215996 301.569855,70.261841 302.121399,64.659477 
	C302.288116,62.966095 303.607941,61.737469 305.673767,61.858627 
	C307.612274,61.972317 307.859680,63.279327 308.364044,64.822517 
	C310.938110,72.698639 312.156250,81.031921 314.792480,88.733551 
	C319.158020,101.487411 315.976929,113.380653 314.038391,125.666725 
	C312.449768,135.734955 312.902100,145.968109 313.662018,156.050537 
	C314.681335,169.575272 318.837006,182.824753 316.852234,197.098007 
	C321.820465,191.762390 322.581573,191.828690 323.081757,186.087189 
	C323.587128,180.286118 326.980408,176.055237 329.006927,171.114624 
	C330.742584,166.883118 337.390656,166.468063 342.538452,169.970963 
	C349.310944,174.579361 353.880157,180.848770 356.167053,188.684692 
	C356.833282,190.967438 357.598572,192.737366 360.490265,192.967148 
	C363.180084,188.999878 365.135773,185.388824 363.233826,179.842514 
	C359.191284,168.053741 357.996765,155.784485 361.760437,143.601578 
	C363.977905,136.423737 369.768524,132.348389 376.404449,129.829758 
	C379.138153,128.792191 382.331970,128.461594 384.848389,126.989082 
	C391.879272,122.874886 399.657898,123.792564 407.197998,123.113182 
	C408.455078,122.999916 409.811859,123.544891 411.065369,123.958946 
	C412.486725,124.428467 413.139191,125.520721 413.043304,127.052666 
	C412.934509,128.790070 411.730164,129.502426 410.331757,129.273239 
	C402.904266,128.055969 397.101196,133.277328 390.229492,134.236526 
	C389.170441,134.384354 388.070129,135.114761 387.235199,135.853958 
	C379.034393,143.114609 376.851074,152.426819 378.610748,162.809128 
	C379.043060,165.360046 380.707916,167.842331 383.347076,168.922287 
	C388.256317,170.931168 393.207733,174.056381 398.244110,174.267181 
	C407.199158,174.641998 415.077026,177.989014 423.220551,180.715240 
	C439.405426,186.133514 455.748169,190.974350 472.331512,195.007278 
	C474.591736,195.556931 476.821136,196.254639 479.101349,196.694168 
	C481.085052,197.076553 482.803558,196.983154 484.342255,194.986923 
	C486.700867,191.927017 490.654327,192.005737 493.988770,191.795776 
	C503.618408,191.189392 513.223694,192.358444 522.788025,193.364227 
	C526.538818,193.758667 529.982849,192.537811 533.657166,192.565811 
	C557.322144,192.746033 580.990173,192.542969 604.654785,192.745010 
	C609.600342,192.787216 614.153564,191.405060 618.865417,190.540695 
	C620.766174,190.191986 621.576172,188.979935 621.723633,187.026352 
	C622.184387,180.924652 626.979004,176.820679 629.311707,171.535812 
	C630.523254,168.791138 635.021484,167.877060 638.600586,167.701477 
	C641.094727,167.579117 643.607849,167.803162 646.097778,167.643326 
	C653.390320,167.175247 659.585876,167.265732 663.120728,176.043182 
	C666.428040,184.255569 674.416931,186.300400 683.076172,186.251038 
	C691.537476,186.202774 700.013245,186.937088 708.462341,187.590256 
	C710.907593,187.779297 712.448059,187.445602 713.851135,185.231964 
	C718.261292,178.273972 724.770264,174.347595 732.795715,172.697372 
	C736.947571,171.843643 737.187805,168.332687 737.635925,164.979584 
	C738.896851,155.543259 736.074097,146.704208 733.784485,137.781448 
	C731.802307,130.056793 732.988831,122.212662 732.997375,114.421066 
	C732.999451,112.563438 733.992920,110.953613 736.349915,110.772179 
	C738.925781,110.573898 739.413513,112.452965 739.838074,114.188560 
	C741.931030,122.744148 744.686157,131.203964 743.472107,140.243027 
	C742.688171,146.079498 745.137085,151.214569 747.054443,156.530014 
	C748.777710,161.307343 750.005249,166.308594 750.955444,171.305374 
	C751.711365,175.280869 753.024597,178.962143 754.969299,182.429092 
	C757.224487,186.449554 755.395691,191.580551 758.385559,195.243912 
	C760.157349,197.414764 760.226990,199.690811 760.386353,202.206833 
	C760.605896,205.672974 759.184875,207.043961 755.781372,206.990479 
	C735.989624,206.679398 716.210632,207.410904 696.405640,205.570786 
	C684.542725,204.468597 672.568848,203.462097 660.626709,203.396667 
	C622.461670,203.187561 584.263611,202.404984 546.141113,203.696243 
	C526.038574,204.377106 505.893402,204.298752 485.864502,205.639954 
	C478.737549,206.117233 471.588928,207.107986 464.335541,207.071167 
	C451.856720,207.007812 439.624969,206.268707 427.351044,203.132874 
	C418.317566,200.824890 409.725983,197.552917 402.215393,192.729904 
	C395.593994,188.477951 388.448059,184.765305 382.462860,179.453857 
	C380.938568,178.101181 378.895966,175.901779 376.922211,178.216370 
	C374.929993,180.552658 371.875854,182.952408 374.445679,186.916550 
	C379.841644,195.240128 387.328979,201.683990 395.986359,205.609329 
	C410.818634,212.334473 425.199524,220.287506 440.510223,225.672806 
	C455.063538,230.791718 467.818970,239.178787 481.761658,245.282303 
	C483.195282,245.909897 484.413116,247.030441 486.690521,248.571472 
	C486.690521,244.022888 486.645782,240.270721 486.711517,236.520493 
	C486.739563,234.917374 486.458344,233.019852 488.933807,232.781525 
	C491.018463,232.580841 492.509033,233.271774 493.206787,235.350403 
	C494.051086,237.865692 495.248291,240.282623 495.036163,243.062408 
	C494.396667,251.443192 496.529175,259.505920 497.728180,267.774963 
	C498.393890,267.774963 499.007355,267.969910 499.339325,267.746552 
	C508.719543,261.434479 516.909363,265.554138 524.569763,271.042236 
	C530.058167,274.974274 532.300354,281.581482 534.426331,287.521271 
	C537.114746,295.032684 540.649292,302.117096 544.039429,309.228088 
	C546.657227,314.718933 552.480774,314.831543 558.578491,313.858612 
	C557.571655,305.679962 561.056641,298.314148 563.316833,290.815186 
	C565.477234,283.647308 572.151062,279.730865 578.716003,277.182190 
	C582.186157,275.834961 586.508057,277.335480 586.668457,282.628723 
	C592.495667,283.775757 596.157349,288.801605 596.325867,295.341125 
	C596.432312,299.472595 595.140320,304.083740 600.289917,307.505554 
	C602.429749,302.263306 604.572632,297.326599 606.466919,292.296265 
	C609.034485,285.477783 616.291809,283.460724 622.077148,288.008118 
	C624.737366,290.099091 627.337524,292.227814 629.527405,295.720062 
	C631.235901,291.720734 630.423523,287.796082 632.798401,284.789124 
	C633.941711,283.341522 634.791626,281.137421 636.636108,281.165833 
	C644.908264,281.293060 645.932800,274.161011 648.759216,269.130615 
	C651.212341,264.764618 658.333069,263.344360 663.095825,267.344604 
	C670.794922,273.811035 678.377380,280.542206 684.197144,288.766937 
	C687.018677,292.754425 688.827515,297.537659 691.579773,301.691681 
	C692.291565,302.766083 692.551208,304.037628 693.912415,304.785858 
	C699.520386,307.868408 709.570740,305.306854 712.831787,299.735382 
	C715.999817,294.322998 717.673523,288.454712 717.696899,282.164398 
	C717.729004,273.497955 717.608398,264.829620 717.756042,256.165558 
	C717.820984,252.349945 718.265808,248.601044 721.884216,246.018204 
	C725.991089,243.086746 729.947754,242.742386 733.604248,246.298904 
	C743.579346,256.001404 753.515137,265.809906 760.570068,277.981995 
	C767.392578,289.753082 760.657104,302.617798 746.869080,304.325226 
	C741.921570,304.937866 737.187256,306.390015 731.420166,307.883331 
	C739.192993,307.883331 746.028015,307.978241 752.859497,307.864532 
	C769.664490,307.584930 786.323364,310.818298 803.174500,309.803650 
	C807.660767,309.533569 812.075684,309.153748 817.315491,308.251678 
	C813.637146,302.906708 810.332153,297.884491 806.793396,293.032837 
	C804.024536,289.236633 802.992065,284.916138 802.543152,280.430664 
	C802.330139,278.301514 802.504456,275.794617 805.394897,275.380676 
	C808.454163,274.942535 808.116028,277.421722 808.493225,279.352051 
	C810.320557,288.704346 816.121338,295.760437 822.162476,302.651978 
	C823.021729,303.632172 824.021240,304.813080 825.552490,304.071045 
	C826.983459,303.377625 826.714783,301.849304 826.945374,300.554718 
	C828.673096,290.856812 823.366516,282.888550 820.544678,274.310730 
	C820.079773,272.897583 819.302307,271.523346 819.161560,270.083038 
	C818.967163,268.094391 819.120605,265.886078 821.389221,265.000854 
	C823.749634,264.079834 824.471008,265.880280 825.897766,267.461243 
	C829.150574,271.065613 830.598328,275.418488 832.567993,279.607422 
	C835.523193,285.892242 837.692261,292.593475 842.534790,297.899292 
	C843.950806,299.450714 845.018738,301.509094 845.684631,303.520996 
	C847.833618,310.013611 845.966553,313.030457 839.319458,312.244446 
	C830.313843,311.179504 822.116150,314.533020 813.520447,315.467743 
	C799.796204,316.960175 785.981873,317.089050 772.248779,315.286560 
	C768.952454,314.853912 765.708191,314.314545 762.364136,314.329041 
	C748.531250,314.389069 734.697693,314.314484 720.864868,314.382050 
	C710.974609,314.430389 701.514587,310.531006 691.520447,311.353210 
	C689.114075,311.551178 687.998962,309.215363 686.862488,307.338440 
	C683.179382,301.255310 680.881775,294.339996 676.007019,288.979309 
	C670.692566,283.135040 665.336304,277.319672 659.115967,272.398651 
	C657.581543,271.184753 655.847046,270.988800 655.019958,273.076691 
	C654.122253,275.342743 652.037354,276.745636 651.096680,278.783722 
	C648.907166,283.527435 646.699829,287.765289 640.372437,287.350494 
	C638.821350,287.248810 637.803162,288.808716 637.447205,290.368652 
	C637.227600,291.330780 637.349182,292.365814 637.191345,293.347809 
	C636.588257,297.099182 636.556641,301.688110 631.923401,302.550781 
	C627.593994,303.356873 623.946655,301.191742 621.694031,297.101837 
	C620.372192,294.701782 618.388123,292.631042 615.610535,292.475189 
	C612.323364,292.290710 612.201660,295.698578 611.151855,297.739746 
	C609.639099,300.681091 608.249146,303.791229 607.496460,306.991516 
	C606.510864,311.181793 603.060852,313.148407 600.353516,315.646118 
	C598.712524,317.160126 595.890991,316.659454 594.940918,314.145752 
	C592.698669,308.213043 588.184143,302.922058 589.954468,295.597321 
	C587.115662,297.624634 587.043396,297.599579 586.247131,299.895264 
	C584.268372,305.599854 581.004761,310.623718 577.961487,315.765656 
	C577.363159,316.776581 576.669678,317.873810 575.380676,317.927612 
	C566.975952,318.278503 558.810364,322.003632 550.322083,320.241821 
	C544.358215,319.003998 540.222229,315.878906 537.050720,309.716888 
	C531.800049,299.515228 529.122986,288.222107 522.855896,278.517365 
	C518.264587,271.407684 506.994324,269.180420 500.642120,274.596130 
	C498.395111,276.511841 497.081635,279.161133 497.404572,282.131165 
	C498.871124,295.618469 495.045013,308.439667 492.693115,321.451172 
	C492.458038,322.751678 492.455750,324.092712 492.301697,325.409821 
	C492.069366,327.395630 493.023621,330.117889 489.581970,330.240997 
	C486.710907,330.343719 484.903351,328.916443 484.084412,326.146851 
	C483.442963,323.977539 484.880066,321.056519 482.539429,319.644745 
	C480.211060,318.240326 477.303131,318.902435 474.676056,319.043823 
	C450.083649,320.367279 425.811981,317.599792 401.960846,312.078888 
	C388.657959,308.999634 375.447876,310.927124 362.217163,310.198547 
	C356.265015,309.870819 347.665863,299.724487 348.939056,293.895111 
	C349.591278,290.908936 351.332825,289.306641 354.740967,290.167877 
	C361.849274,291.964050 368.540070,294.895874 375.401520,297.319550 
	C383.932068,300.332764 392.418396,304.051514 402.263153,302.957031 
	C412.307098,301.840424 422.569489,302.610840 432.734924,302.703339 
	C436.764771,302.740021 440.638580,302.237122 444.547485,301.230377 
	C450.329010,299.741272 456.089325,298.244385 462.221375,298.320038 
	C465.555847,298.361206 469.090424,297.682312 472.029327,295.278564 
	C473.917755,293.734009 476.308502,292.971588 478.911011,292.635559 
	C484.066406,291.969910 487.600800,287.522919 487.643066,282.240997 
	C487.676422,278.074646 487.577881,273.906281 487.666962,269.741516 
	C487.868164,260.333435 483.771698,253.787796 475.243469,249.643356 
	C468.372223,246.304169 461.869751,242.212418 455.040131,238.779907 
	C444.679382,233.572647 433.324738,230.652496 423.094177,225.098175 
	C415.333679,220.884872 407.230682,217.446350 398.968323,214.314438 
	C386.847260,209.719894 377.713165,201.139221 369.335815,191.386322 
	C367.766754,191.805573 367.672882,193.529449 366.979797,194.736710 
	C365.245544,197.757584 364.813965,202.039337 359.630280,201.353958 
	C354.896423,200.728073 352.472931,197.382904 350.832733,193.619812 
	C348.983765,189.377823 347.951660,184.780212 344.619598,181.287643 
	C344.050446,180.691086 343.777649,179.665817 343.117493,179.327850 
	C340.510529,177.993286 338.711578,173.337769 336.040741,174.842392 
	C333.301056,176.385788 331.194580,180.008881 330.360504,183.620316 
	C328.610626,191.197128 326.532410,198.581970 320.682159,204.253693 
	C318.470581,206.397736 319.341919,209.659073 318.162231,212.222183 
	C317.281921,214.134888 317.058960,216.647797 314.008270,216.268204 
	C310.813110,215.870621 310.745972,213.401367 310.703888,211.037567 
	C310.635620,207.205414 310.391998,203.346481 310.723511,199.542496 
	C311.921143,185.798721 309.070587,172.385101 307.442474,158.896851 
	C306.665314,152.458374 307.692749,145.978775 306.380310,138.597595 
	C295.064362,150.228592 280.778534,146.405075 267.271149,147.584991 
	C266.902802,151.639587 268.823425,155.064499 269.656189,158.663376 
	C272.075287,169.117523 274.305054,179.650726 277.503326,189.873154 
	C278.922638,194.409592 280.354095,199.239639 283.672150,203.174210 
	C285.302795,205.107834 286.030243,207.906464 286.799286,210.425705 
	C287.281952,212.006836 287.131531,213.888702 285.081329,214.577026 
	C283.174744,215.217117 281.118469,215.036850 280.400146,212.965149 
	C278.008392,206.066910 272.284607,201.269485 269.244995,194.822296 
	C267.503448,191.128418 263.808289,189.515015 261.129364,186.826614 
	C248.559555,174.212280 233.103699,165.479477 218.320602,155.942719 
	C209.680893,150.369156 209.048569,151.249344 205.384949,160.836060 
	C198.917725,177.759003 192.029984,194.523804 185.751526,211.514893 
	C183.714127,217.028580 179.791626,221.860229 179.675201,228.124771 
	C179.642273,229.896713 178.984390,231.819733 176.423828,231.687607 
	C173.811203,231.552811 173.056473,229.708115 172.893188,227.625229 
	C172.423203,221.629318 172.267319,215.504410 174.293015,209.836823 
	C178.207993,198.883408 179.812119,187.219269 184.743835,176.600540 
	C187.738480,170.152588 190.702316,163.690323 193.685608,157.237091 
	C194.033890,156.483719 194.472885,155.768600 194.776688,154.998962 
	C197.372513,148.422897 196.115189,146.569534 189.245178,145.300629 
	C175.148636,142.696991 160.785172,143.134201 146.633453,141.257767 
	C145.975006,141.170441 145.270065,141.297577 144.644867,141.120163 
	C142.475693,140.504669 139.521057,140.428329 139.779694,137.225113 
	C140.017029,134.285767 142.639709,133.898071 145.039688,133.726242 
	C155.755936,132.958954 166.260986,134.507935 176.643387,136.914963 
	C182.859879,138.356171 189.237701,137.810196 195.474365,138.876709 
	C197.078064,139.150955 198.666763,138.908035 199.817505,137.180405 
	C204.944702,129.482758 207.116074,121.161438 205.132767,112.041183 
	C204.024780,106.946175 203.571869,101.848198 203.924881,96.675652 
	C204.078140,94.429985 204.646729,92.139343 207.463699,92.059868 
	C210.846848,91.964424 210.241180,94.693695 210.317871,96.754448 
	C210.465820,100.729172 209.904312,104.759621 211.596313,108.896561 
	C216.606903,101.888153 218.443741,93.585289 221.616425,85.910110 
	C223.889938,80.410202 226.900681,75.288376 230.161942,70.466209 
	C233.415009,65.656181 236.259384,66.651711 240.763123,73.414696 
M212.448776,137.835205 
	C213.219788,140.242157 215.311096,139.543442 217.031647,139.850357 
	C226.900299,141.610718 236.959641,139.871506 246.848984,141.569580 
	C250.429871,142.184433 253.916748,140.884521 258.067932,139.728470 
	C248.972397,118.731094 243.461609,96.883301 234.253448,75.991058 
	C233.104889,80.755943 229.779816,83.957535 228.146347,88.061844 
	C224.379044,97.527641 220.914413,107.145195 216.547394,116.330536 
	C213.372147,123.009155 211.558289,129.644119 212.448776,137.835205 
M751.710815,295.296082 
	C757.171509,290.027710 757.806396,286.461060 753.973450,279.931885 
	C748.135315,269.987030 739.569519,262.243073 732.222229,253.516983 
	C731.085144,252.166473 729.541260,251.037842 727.650330,250.751541 
	C724.664307,252.346069 724.355103,255.020065 724.261536,257.993713 
	C723.917175,268.933624 725.079773,279.894409 723.419312,290.830322 
	C722.753052,295.218903 719.314941,298.400879 718.896118,303.150452 
	C724.269531,302.225311 729.656860,301.954010 734.564270,300.277740 
	C740.033325,298.409607 746.420471,300.077179 751.710815,295.296082 
M241.500443,147.330154 
	C232.649353,147.925629 223.825562,146.514618 213.997986,146.358765 
	C234.447586,157.490021 252.549500,170.006195 269.298462,184.629044 
	C266.337189,176.761765 265.985596,168.543777 263.700195,160.765503 
	C259.765717,147.374481 259.961395,147.316956 245.994720,147.326370 
	C244.829376,147.327164 243.664032,147.328705 241.500443,147.330154 
M442.057404,312.057770 
	C447.088623,313.027924 452.065369,313.285339 457.258148,312.834778 
	C464.529236,312.203888 471.895386,312.692139 479.220428,312.640808 
	C480.806610,312.629669 483.170624,313.171875 483.463074,311.071381 
	C484.082794,306.620178 485.956604,302.304260 485.545135,297.629059 
	C465.735748,304.381134 445.905518,308.938995 424.670074,309.650909 
	C430.532043,310.416748 435.868774,311.113922 442.057404,312.057770 
M708.584900,199.692566 
	C711.066040,200.229080 711.736206,199.113617 711.711670,196.745514 
	C711.683533,194.038300 710.359436,193.245667 707.971619,193.375977 
	C698.830811,193.874847 689.749756,192.681671 680.636353,192.401108 
	C672.591980,192.153458 665.291748,190.193390 659.749756,183.103790 
	C658.733337,187.663727 657.792297,191.885544 656.655762,196.984528 
	C674.108337,197.901840 690.939270,198.786484 708.584900,199.692566 
M402.113037,184.418137 
	C403.197327,186.183701 404.875702,187.152237 406.636627,188.170929 
	C419.656403,195.702805 434.063141,198.593277 448.680176,200.469940 
	C454.352325,201.198166 460.196167,200.588867 465.961792,200.588867 
	C465.992279,200.184875 466.022797,199.780884 466.053284,199.376877 
	C458.933685,199.818375 452.889954,196.381348 446.402985,194.522537 
	C438.947083,192.386093 431.453552,190.433273 424.070038,188.002197 
	C415.574585,185.205032 407.536804,180.238846 397.173279,181.514130 
	C399.123901,182.565842 400.379089,183.242615 402.113037,184.418137 
M729.334106,200.656067 
	C737.204285,200.656067 745.074463,200.656067 752.944641,200.656067 
	C748.869568,195.191620 751.528748,188.175964 747.566650,183.461319 
	C739.523865,188.429672 733.008545,194.290146 725.837280,200.361984 
	C727.281189,200.509293 727.932800,200.575775 729.334106,200.656067 
M374.024506,141.903748 
	C375.720184,140.723862 376.984802,139.306686 376.728912,136.738846 
	C373.226288,138.322845 369.779968,140.391403 368.742676,143.756638 
	C365.485199,154.324554 364.721039,165.042053 369.519928,176.033554 
	C372.555206,172.643341 374.133850,170.368362 372.754791,165.219498 
	C370.819672,157.994476 370.263306,149.919189 374.024506,141.903748 
M567.771545,297.429504 
	C567.967834,301.884491 564.013611,305.697998 565.672058,310.434448 
	C572.802185,307.402679 580.809326,291.991913 579.124817,284.244781 
	C574.206421,287.475281 569.049011,290.236450 567.771545,297.429504 
M632.342407,186.553696 
	C639.162781,183.444580 646.115479,180.541962 651.513855,174.592300 
	C636.402893,172.930145 631.549500,175.652908 628.911194,186.997650 
	C629.894653,187.792236 630.777100,187.022446 632.342407,186.553696 
M647.374695,186.055969 
	C642.349304,190.097183 635.519531,190.841187 629.187256,195.878220 
	C634.921631,195.878220 639.217041,195.579758 643.452271,195.957108 
	C648.268372,196.386185 650.692566,194.174622 651.483765,189.809235 
	C651.857056,187.749939 652.896851,185.736710 652.402588,183.498810 
	C650.412354,183.381516 649.405762,184.990295 647.374695,186.055969 
M733.925720,179.397934 
	C728.465942,179.977509 724.059143,182.215393 720.808655,187.210571 
	C728.484314,188.367722 732.604248,185.935654 733.925720,179.397934 
M359.362823,298.155975 
	C358.782501,297.952209 358.202148,297.748474 357.433960,297.478760 
	C359.765808,304.175629 360.838257,304.602997 371.527008,303.129578 
	C367.906036,300.415283 363.724548,299.874084 359.362823,298.155975 
M839.001587,305.171600 
	C838.318848,302.150665 836.243652,300.200684 833.848572,297.933624 
	C833.120667,300.884552 833.218018,303.290924 833.695129,305.878845 
	C835.493408,306.164978 837.204163,306.755371 839.001587,305.171600 
z"/>
<path fill="#888888" opacity="1.000000" stroke="none" 
	d="
M798.349121,232.715256 
	C797.196350,230.637924 796.034729,230.395752 794.072449,231.228073 
	C789.885681,233.003967 787.121155,231.753571 785.920288,227.973541 
	C784.871521,224.672394 788.009705,219.144089 791.434692,218.716965 
	C794.216614,218.370041 797.810181,219.602249 799.735046,218.258896 
	C804.989868,214.591660 808.346802,217.266617 813.070801,219.529800 
	C820.657532,223.164444 823.388672,225.618301 823.401428,233.935684 
	C823.404236,235.761932 823.680725,237.639542 823.348694,239.402618 
	C822.824890,242.183914 825.583252,246.629227 820.973206,247.384842 
	C816.776733,248.072632 811.879272,249.846313 808.348389,244.728516 
	C805.468750,240.554626 801.831055,236.903778 798.349121,232.715256 
M805.508789,231.402435 
	C808.115845,234.342850 809.979126,237.887268 813.348572,240.227997 
	C815.889282,241.992966 817.139038,241.891571 817.600708,238.626587 
	C818.566833,231.794724 817.638123,229.902634 810.881531,226.031006 
	C811.071777,230.245712 806.065979,227.818192 805.508789,231.402435 
z"/>
</svg>